<svg id="money" xmlns="http://www.w3.org/2000/svg" viewBox="0 0 287.69 170">
    <path d="M242,170H16.5c-8.7,0-15.8-7.1-15.8-15.8V35.8C0.7,27.1,7.8,20,16.5,20H242c8.7,0,15.8,7.1,15.8,15.8v118.5
		C257.8,162.9,250.7,170,242,170z M129.4,53.7c-23,0-41.6,18.6-41.6,41.6s18.6,41.6,41.6,41.6S171,118.3,171,95.3c0,0,0,0,0,0
		C171,72.3,152.4,53.7,129.4,53.7C129.4,53.7,129.4,53.7,129.4,53.7z M0,52.7c33.2,0,38.8-32,38.8-32 M218.9,20.7
		c0,0,5.6,32,38.8,32 M39.4,168.9c0,0-5.6-32-38.8-32 M258.2,136.9c-33.2,0-38.8,32-38.8,32 M121.3,104.1c2.6,1.7,5.8,3,8.9,2.5
		c2.5-0.3,4.5-2,5.3-4.4c0.4-1.8,0-3.8-1.1-5.3c-2.6-3.7-8.7-3.5-10.5-7.8c-0.7-1.9-0.3-4,1-5.5c1.4-1.4,3.4-2.2,5.3-1.9
		c2.1,0.3,4,1.4,5.4,3 M129.4,81.8v-6 M129.4,106.8v6.9 M257.7,150H272c8.7,0,15.8-7.1,15.8-15.8V15.8C287.8,7.1,280.7,0,272,0H46.5
		c-8.7,0-15.8,7.1-15.8,15.8V20 M27.2,20.2 M59.3,20c4.7-5.6,8-12.2,9.6-19.4 M248.9,0.6c0,0,5.6,32,38.8,32 M288.2,116.9
		c-15.3,0-24.8,6.8-30.5,14.2" fill="none" vector-effect="non-scaling-stroke"/>
</svg>
