<?xml version="1.0" encoding="utf-8"?>
<!-- Generator: Adobe Illustrator 22.1.0, SVG Export Plug-In . SVG Version: 6.00 Build 0)  -->
<svg version="1.1" id="Layer_3" xmlns="http://www.w3.org/2000/svg" xmlns:xlink="http://www.w3.org/1999/xlink" x="0px" y="0px"
	 viewBox="0 0 279.1 170.7" style="enable-background:new 0 0 279.1 170.7;" xml:space="preserve">
<style type="text/css">
	.st0{fill:url(#SVGID_1_);}
	.st1{fill:url(#SVGID_2_);}
	.st2{fill:url(#SVGID_3_);}
</style>
<g>
	<linearGradient id="SVGID_1_" gradientUnits="userSpaceOnUse" x1="2.4392" y1="172.7932" x2="301.4391" y2="-12.2068">
		<stop  offset="0" style="stop-color:#552365"/>
		<stop  offset="1" style="stop-color:#9E58A3"/>
	</linearGradient>
	<path class="st0" d="M130.8,49.3c-24.3,0-44.1,19.8-44.1,44.1c0,24.3,19.8,44.1,44.1,44.1c24.3,0,44.1-19.8,44.1-44.1
		C174.9,69.1,155.1,49.3,130.8,49.3z M130.8,132.5c-21.6,0-39.1-17.5-39.1-39.1c0-21.6,17.5-39.1,39.1-39.1
		c21.6,0,39.1,17.5,39.1,39.1C169.9,114.9,152.4,132.5,130.8,132.5z"/>
	<linearGradient id="SVGID_2_" gradientUnits="userSpaceOnUse" x1="1.762" y1="171.6988" x2="300.762" y2="-13.3012">
		<stop  offset="0" style="stop-color:#552365"/>
		<stop  offset="1" style="stop-color:#9E58A3"/>
	</linearGradient>
	<path class="st1" d="M132.1,89.8c-4-1.6-5.7-2.8-5.7-5.2c0-1.8,1.3-3.9,4.8-3.9c2.9,0,4.8,1,5.8,1.6l1.1-3
		c-1.3-0.8-3.2-1.5-5.9-1.6v-4.4h-2.8v4.6c-4.2,0.7-6.9,3.6-6.9,7.4c0,4,2.9,6.1,7.5,7.9c3.4,1.4,5.2,2.9,5.2,5.4
		c0,2.6-2.2,4.5-5.4,4.5c-2.6,0-4.9-0.9-6.6-2l-1.1,3.1c1.6,1.1,4.3,2,7,2v4.6h2.9V106c4.7-0.8,7.2-4.2,7.2-7.8
		C139.1,94.1,136.8,91.8,132.1,89.8z"/>
	<linearGradient id="SVGID_3_" gradientUnits="userSpaceOnUse" x1="1.3508" y1="171.0342" x2="300.3508" y2="-13.9658">
		<stop  offset="0" style="stop-color:#552365"/>
		<stop  offset="1" style="stop-color:#9E58A3"/>
	</linearGradient>
	<path class="st2" d="M261.3,0H36.3c-9.3,0-17,7-18.1,16C8.1,16.1,0,24.2,0,34.3v118.2c0,10.1,8.2,18.3,18.3,18.3h225.1
		c9.3,0,17-7,18.1-16c10-0.1,18.2-8.2,18.2-18.3V18.3C279.6,8.2,271.4,0,261.3,0z M236.2,5c0.6,2.3,1.9,6.4,4.5,11H55.8
		c2.5-4.6,3.9-8.7,4.5-11H236.2z M36.3,5h18.8c-0.7,2.6-2.2,6.7-4.9,11h-27C24.3,9.8,29.7,5,36.3,5z M5,34.3C5,27,10.9,21,18.3,21
		h18.8c-2,7.1-9.4,25.3-32.1,27.1V34.3z M18.3,165.7c-7.3,0-13.3-5.9-13.3-13.3v-14.9c24.2,1.6,31.3,22,32.9,28.2H18.3z
		 M256.6,152.5c0,7.3-5.9,13.3-13.3,13.3h-19.7c1.6-6.1,8.6-26.6,32.9-28.2V152.5z M256.6,132.6c-29.3,1.7-36.9,28.2-38.1,33.2H43.1
		c-1.2-5-8.8-31.5-38.1-33.2V53.1C32.2,51.2,40.4,27.8,42.2,21h176c1.8,6.9,10.3,30.8,38.3,32.2V132.6z M256.6,48.2
		c-23.5-1.3-31.1-20-33.2-27.2h19.9c7.3,0,13.3,6,13.3,13.3V48.2z M244.3,16.1c0.2,0,0.4,0,0.6,0C244.8,16.1,244.5,16.1,244.3,16.1z
		 M261.6,152.5c0,0.5,0,0.9-0.1,1.4C261.6,153.5,261.6,153,261.6,152.5z M261.3,30.9c0.1,0.4,0.1,0.8,0.2,1.2
		C261.4,31.7,261.3,31.3,261.3,30.9z M261.5,32.6c0,0.5,0.1,1.1,0.1,1.6C261.6,33.7,261.6,33.1,261.5,32.6z M274.6,136.5
		c0,7.2-5.8,13.1-13,13.2v-25c3.7-1.7,8-2.8,13-3.1V136.5z M274.6,116.6c-4.9,0.3-9.2,1.3-13,2.8V34.6c3.8,1.4,8.1,2.3,13,2.6V116.6
		z M274.6,32.2c-5.4-0.3-10-1.5-13.8-3.3c0.2,0.5,0.3,1,0.4,1.5c-1.6-7.2-7.3-12.8-14.6-14.1c-2.8-4.4-4.4-8.6-5.2-11.3h19.9
		c7.3,0,13.3,6,13.3,13.3V32.2z"/>
</g>
</svg>
