<?xml version="1.0" encoding="utf-8"?>
<!-- Generator: Adobe Illustrator 22.1.0, SVG Export Plug-In . SVG Version: 6.00 Build 0)  -->
<svg version="1.1" id="Layer_2" xmlns="http://www.w3.org/2000/svg" xmlns:xlink="http://www.w3.org/1999/xlink" x="0px" y="0px"
	 viewBox="0 0 191.5 183.3" style="enable-background:new 0 0 191.5 183.3;" xml:space="preserve">
<style type="text/css">
	.st0{fill:url(#SVGID_1_);}
</style>
<linearGradient id="SVGID_1_" gradientUnits="userSpaceOnUse" x1="12.6511" y1="133.9755" x2="187.6511" y2="42.9755">
	<stop  offset="0" style="stop-color:#552365"/>
	<stop  offset="1" style="stop-color:#9E58A3"/>
</linearGradient>
<path class="st0" d="M117.2,55.7l5.6,6.1l-3.7,3.4l-5.6-6.1L117.2,55.7z M102.2,46.9l5.6,6.1l3.7-3.4l-5.6-6.1L102.2,46.9z
	 M136,83.5l5.6,6.1l3.7-3.4l-5.6-6.1L136,83.5z M124.8,71.3l5.6,6.1l3.7-3.4l-5.6-6.1L124.8,71.3z M98.2,103.9
	c0,8.8-7.1,15.9-15.9,15.9s-15.9-7.1-15.9-15.9s7.1-15.9,15.9-15.9S98.2,95.1,98.2,103.9z M93.2,103.9c0-6-4.9-10.9-10.9-10.9
	c-6,0-10.9,4.9-10.9,10.9c0,6,4.9,10.9,10.9,10.9C88.3,114.8,93.2,109.9,93.2,103.9z M191.5,65.4L60.2,183.2l-20.5-22.9l-3.4-3.8
	c1.5-0.8,2.8-1.9,3.8-3.3c1.1-1.6,1.7-3.5,1.7-5.6c0-5.5-4.5-10-10-10c-1.7,0-3.3,0.4-4.7,1.2c-1.5,0.8-2.8,2-3.7,3.4l-3.4-3.8
	L0,116.2L131.3-1.7l20.5,22.9l3.5,3.8c-1.6,0.7-2.9,1.7-4,3.1c-1.3,1.7-2.1,3.8-2.1,6.1c0,5.5,4.5,10,10,10c1.9,0,3.7-0.6,5.2-1.5
	c1.4-0.9,2.6-2.1,3.5-3.6l3.5,3.8L191.5,65.4z M60.6,176.2l88-79l-1.3-1.4l3.7-3.4l1.4,1.5L184.4,65l-16.6-18.5
	c-2.4,1.7-5.4,2.7-8.6,2.7c-8.3,0-15-6.7-15-15c0-3.8,1.4-7.2,3.7-9.9l-17-19L98,34.9l2.3,2.5l-3.7,3.4l-2.3-2.5L7.1,116.6L23.6,135
	c2.3-1.5,5.1-2.4,8.1-2.4c8.3,0,15,6.7,15,15c0,3.6-1.3,6.8-3.3,9.4L60.6,176.2z"/>
</svg>
