<?xml version="1.0" encoding="utf-8"?>
<!-- Generator: Adobe Illustrator 22.1.0, SVG Export Plug-In . SVG Version: 6.00 Build 0)  -->
<svg version="1.1" id="Layer_2" xmlns="http://www.w3.org/2000/svg" xmlns:xlink="http://www.w3.org/1999/xlink" x="0px" y="0px"
	 viewBox="0 0 179.2 176.4" style="enable-background:new 0 0 179.2 176.4;" xml:space="preserve">
<style type="text/css">
	.st0{fill:url(#SVGID_1_);}
</style>
<linearGradient id="SVGID_1_" gradientUnits="userSpaceOnUse" x1="-2.999765e-05" y1="88.2236" x2="179.1914" y2="88.2236">
	<stop  offset="0" style="stop-color:#552365"/>
	<stop  offset="1" style="stop-color:#9E58A3"/>
</linearGradient>
<path class="st0" d="M40.6,90.3c0.7-1.2,2-2,3.4-2c2.2,0,4,1.8,4,4h2l2,0.1c0,0,0,0,0-0.1c0-2.2,1.8-4,4-4c2.2,0,4,1.8,4,4h1h3h1
	c0-2.2,1.8-4,4-4c1.9,0,3.4,1.3,3.9,3c0.1,0.6,0.1,1,0.1,1.2c0,0,0,0.1,0,0.1h4c0-3.1,2.5-5.6,5.6-5.6c2.1,0,3.9,1.2,4.9,2.9v51.8h5
	V89.9c1-1.7,2.8-2.8,4.9-2.8c3.1,0,5.6,2.5,5.6,5.6h3.9l0.1,0c0-0.1,0.1-0.7,0.2-1.5c0.5-1.7,2-3,3.8-3c2.2,0,4,1.8,4,4h4
	c0-2.2,1.8-4,4-4c2.2,0,4,1.8,4,4h1h1l2,0.1c0,0,0-0.1,0-0.1h1c0-2.2,1.8-4,4-4c1.5,0,2.7,0.8,3.4,2c0,0.7,0.1,1.5,0.1,2.3h5
	c0-30.1-24.4-54.5-54.5-54.5S35.6,62.5,35.6,92.6h5C40.6,91.8,40.6,91.1,40.6,90.3z M138.9,84.9c-0.9-0.3-1.9-0.5-2.9-0.5
	c-1.9,0-3.7,0.7-5.1,1.8c-0.4-7.7-2.2-21.1-9.5-31.8C130.6,61.9,137,72.7,138.9,84.9z M104.3,45.2c4,1.6,7.5,4,10.4,7.1
	c9.2,9.7,11.6,24.4,12.2,33c-1.1-0.6-2.5-1-3.8-1c-2.4,0-4.5,1.1-6,2.7c-1.5-1.7-3.6-2.7-6-2.7c-1.2,0-2.4,0.3-3.5,0.8
	c0.2-10-1.3-27.8-12.5-41.8C98.3,43.7,101.3,44.3,104.3,45.2z M103.5,85.3c-1.7-1.4-3.8-2.2-6.1-2.2c-2.9,0-5.6,1.3-7.3,3.4
	c-1.8-2.1-4.4-3.5-7.4-3.5c-2.3,0-4.4,0.8-6.1,2.2C76.4,75.4,78,56.9,90,43.6C102.1,56.9,103.7,75.4,103.5,85.3z M79.1,44.3
	c1.9-0.4,3.8-0.8,5.8-1C73.8,57.4,72.4,75.3,72.5,85.2c-1.1-0.5-2.2-0.8-3.5-0.8c-2.7,0-5,1.3-6.5,3.4c-1.5-2-3.8-3.4-6.5-3.4
	c-1.1,0-2.2,0.2-3.2,0.7c0.7-4.8,2.1-11.4,4.8-17.9C62.5,55.1,69.7,47.5,79.1,44.3z M61.8,52c-3.1,3.8-5.8,8.4-7.9,13.8
	c-3.1,7.6-4.5,15-5.2,20.1c-1.3-0.9-2.9-1.5-4.6-1.5c-1,0-2,0.2-2.9,0.5C43.3,71.3,51,59.5,61.8,52z M143.1,27.7
	c7.6,0,13.8-6.2,13.8-13.8c0-7.6-6.2-13.8-13.8-13.8c-7.6,0-13.8,6.2-13.8,13.8C129.2,21.5,135.4,27.7,143.1,27.7z M143.1,4
	c5.4,0,9.8,4.4,9.8,9.8c0,5.4-4.4,9.8-9.8,9.8c-5.4,0-9.8-4.4-9.8-9.8C133.2,8.4,137.6,4,143.1,4z M179.2,106l-33.6,45.2H23.4
	L4,176.4l-4-3.1l21-27.2h122.1l32.1-43.2L179.2,106z"/>
</svg>
