<svg id="umbrella" xmlns="http://www.w3.org/2000/svg" viewBox="0 0 176 180">
<path d="M176,103l-40,50H18L0,181 M86,89v54 M46,89 M135,82c3,0,5.5,1.9,6.5,4.5C139.3,76.3,128.3,39,86,39
	S32.7,76.3,30.5,86.5c1-2.6,3.5-4.5,6.5-4.5c3.9,0,7,3.1,7,7c0-3.9,3.1-7,7-7s7,3.1,7,7c0-3.9,3.1-7,7-7s7,3.1,7,7c0-3.9,3.1-7,7-7
	s7,3.1,7,7c0-3.9,3.1-7,7-7s7,3.1,7,7c0-3.9,3.1-7,7-7s7,3.1,7,7c0-3.9,3.1-7,7-7s7,3.1,7,7C128,85.1,131.1,82,135,82z M86,39
	c-33.8,0-42,50-42,50 M128,89c0,0-8.2-50-42-50 M86,39C68.5,56.5,72,89,72,89 M100,89c0,0,3.5-32.5-14-50 M139,2
	c-7.2,0-13,5.8-13,13s5.8,13,13,13s13-5.8,13-13S146.2,2,139,2z" fill="none" vector-effect="non-scaling-stroke"/>
</svg>
